
<svg xmlns="http://www.w3.org/2000/svg" viewBox="0 0 1180 610" width="1180" height="610" role="img" aria-label="Pulok Singha light hero banner">
  <defs>
    <linearGradient id="bg" x1="0" y1="0" x2="1180" y2="610" gradientUnits="userSpaceOnUse">
      <stop offset="0" stop-color="#FFFFFF"/>
      <stop offset="1" stop-color="#F8FAFC"/>
    </linearGradient>
    <radialGradient id="g1" cx="0" cy="0" r="1" gradientUnits="userSpaceOnUse" gradientTransform="translate(220 120) scale(340 220)">
      <stop offset="0" stop-color="#2563EB" stop-opacity=".14"/>
      <stop offset="1" stop-color="#2563EB" stop-opacity="0"/>
    </radialGradient>
    <radialGradient id="g2" cx="0" cy="0" r="1" gradientUnits="userSpaceOnUse" gradientTransform="translate(980 520) scale(420 260)">
      <stop offset="0" stop-color="#06B6D4" stop-opacity=".12"/>
      <stop offset="1" stop-color="#06B6D4" stop-opacity="0"/>
    </radialGradient>
    <linearGradient id="acc" x1="0" y1="0" x2="1" y2="1">
      <stop offset="0" stop-color="#2563EB"/>
      <stop offset=".5" stop-color="#06B6D4"/>
      <stop offset="1" stop-color="#10B981"/>
    </linearGradient>
    <filter id="blur" x="-20%" y="-20%" width="140%" height="140%">
      <feGaussianBlur stdDeviation="40"/>
    </filter>
  </defs>

  <rect width="1180" height="610" rx="28" fill="url(#bg)"/>
  <rect x="-80" y="-40" width="520" height="360" fill="url(#g1)" filter="url(#blur)"/>
  <rect x="620" y="260" width="620" height="360" fill="url(#g2)" filter="url(#blur)"/>

  <rect x="24" y="24" width="430" height="562" rx="22" fill="#F8FAFC" stroke="rgba(15,23,42,.10)"/>
  <rect x="474" y="24" width="682" height="562" rx="22" fill="#F8FAFC" stroke="rgba(15,23,42,.10)"/>

  <text x="58" y="92" font-family="monospace" font-size="20" fill="url(#acc)">┌───────────────────────┐</text>
  <text x="58" y="122" font-family="monospace" font-size="20" fill="url(#acc)">│   PULOK TERMINAL v2   │</text>
  <text x="58" y="152" font-family="monospace" font-size="20" fill="url(#acc)">└───────────────────────┘</text>

  <text x="66" y="210" font-family="monospace" font-size="18" fill="#0EA5E9">        .----.</text>
  <text x="66" y="238" font-family="monospace" font-size="18" fill="#2563EB">      _/      \_</text>
  <text x="66" y="266" font-family="monospace" font-size="18" fill="#06B6D4">     /  .-  -.  \</text>
  <text x="66" y="294" font-family="monospace" font-size="18" fill="#10B981">    |  /  /\  \  |</text>
  <text x="66" y="322" font-family="monospace" font-size="18" fill="#06B6D4">    | |  (  )  | |</text>
  <text x="66" y="350" font-family="monospace" font-size="18" fill="#2563EB">    | |   --   | |</text>
  <text x="66" y="378" font-family="monospace" font-size="18" fill="#0EA5E9">    |  \______/  |</text>
  <text x="66" y="406" font-family="monospace" font-size="18" fill="#10B981">     \  /____\  /</text>
  <text x="66" y="434" font-family="monospace" font-size="18" fill="#06B6D4">      `-.____.-'</text>

  <rect x="58" y="470" width="360" height="1" fill="url(#acc)" opacity=".7"/>
  <text x="66" y="505" font-family="Inter,Arial,sans-serif" font-size="16" fill="#475569">[ status ] Open Source • Full Stack • AI</text>

  <text x="520" y="104" font-family="Inter,Arial,sans-serif" font-size="28" font-weight="700" fill="#0F172A">Hi 👋</text>
  <text x="520" y="146" font-family="Inter,Arial,sans-serif" font-size="44" font-weight="800" fill="#0F172A">I'm Pulok Singha</text>
  <text x="520" y="188" font-family="Inter,Arial,sans-serif" font-size="22" font-weight="600" fill="url(#acc)">Full Stack Developer • UI Engineer • AI Enthusiast</text>

  <text x="520" y="246" font-family="Inter,Arial,sans-serif" font-size="18" fill="#334155">📍 Assam, India</text>
  <text x="520" y="278" font-family="Inter,Arial,sans-serif" font-size="18" fill="#334155">🎓 Computer Science</text>
  <text x="520" y="310" font-family="Inter,Arial,sans-serif" font-size="18" fill="#334155">⚡ Focus: AI-powered Web Engineering</text>
  <text x="520" y="342" font-family="Inter,Arial,sans-serif" font-size="18" fill="#334155">🌐 Portfolio: pulok.vercel.app</text>
  <text x="520" y="374" font-family="Inter,Arial,sans-serif" font-size="18" fill="#334155">✉️ hello@pulok.dev</text>

  <g font-family="Inter,Arial,sans-serif" font-size="14" font-weight="700">
    <rect x="520" y="420" width="78" height="32" rx="16" fill="#E2E8F0" stroke="#CBD5E1"/><text x="559" y="441" text-anchor="middle" fill="#0F172A">React</text>
    <rect x="608" y="420" width="86" height="32" rx="16" fill="#E2E8F0" stroke="#CBD5E1"/><text x="651" y="441" text-anchor="middle" fill="#0F172A">Next.js</text>
    <rect x="704" y="420" width="84" height="32" rx="16" fill="#E2E8F0" stroke="#CBD5E1"/><text x="746" y="441" text-anchor="middle" fill="#0F172A">Node.js</text>
    <rect x="798" y="420" width="104" height="32" rx="16" fill="#E2E8F0" stroke="#CBD5E1"/><text x="850" y="441" text-anchor="middle" fill="#0F172A">TypeScript</text>
    <rect x="520" y="462" width="92" height="32" rx="16" fill="#E2E8F0" stroke="#CBD5E1"/><text x="566" y="483" text-anchor="middle" fill="#0F172A">Tailwind</text>
    <rect x="622" y="462" width="82" height="32" rx="16" fill="#E2E8F0" stroke="#CBD5E1"/><text x="663" y="483" text-anchor="middle" fill="#0F172A">Python</text>
    <rect x="714" y="462" width="80" height="32" rx="16" fill="#E2E8F0" stroke="#CBD5E1"/><text x="754" y="483" text-anchor="middle" fill="#0F172A">Docker</text>
    <rect x="804" y="462" width="96" height="32" rx="16" fill="#E2E8F0" stroke="#CBD5E1"/><text x="852" y="483" text-anchor="middle" fill="#0F172A">Postgres</text>
  </g>

  <text x="520" y="540" font-family="Inter,Arial,sans-serif" font-size="15" fill="#64748B">GitHub • LinkedIn • Twitter • Portfolio</text>
</svg>
